<?xml version="1.0" encoding="UTF-8"?>
<svg fill="none" viewBox="0 0 484 332" xmlns="http://www.w3.org/2000/svg">
<g clip-path="url(#a)">
<path d="m415.52 138.62c6.671 7.016 14.114 8.135 22.329 3.358-3.448-5.539-4.268-11.565-3.35-17.912h-16.002c0.709 5.577 0.518 10.771-2.977 14.554z" fill="#FFB8B8"/>
<path d="m441.94 322.23 8.56-4.478 3.721-47.395v-25.003l-19.724-0.373 5.582 25.003 1.861 52.246z" fill="#FFB8B8"/>
<path d="m417.13 322.23-8.559-4.478-3.722-47.395v-25.003l19.724-0.373-5.582 25.003-1.861 52.246z" fill="#FFB8B8"/>
<path d="m403.98 250.58 20.84-1.866 3.35-19.033 4.093 18.66 22.701-1.493c0.496-9.068-0.764-18.4-3.721-27.989l-49.868-1.119 2.605 32.84z" fill="#2F2E41"/>
<path d="m382.32 179.1-25.068-19.358c-0.261-0.201-0.547-0.365-0.851-0.489l-3.644-1.487c-2.926-1.194-8.5-5.165-5.782-9.255 2.192-3.297 10.582 2.61 11.614 4.798 0.327 0.688 0.862 1.256 1.529 1.621l5.094 2.799c0.124 0.069 0.252 0.129 0.383 0.183l19.396 7.883c0.537 0.219 1.119 0.305 1.697 0.253s1.135-0.242 1.625-0.554l3.516-2.235c0.5-0.319 1.07-0.51 1.661-0.557 0.591-0.048 1.184 0.05 1.728 0.284 0.545 0.234 1.024 0.598 1.397 1.059 0.373 0.462 0.628 1.008 0.743 1.591l1.162 5.882c0.167 0.846 0.031 1.725-0.386 2.481-0.417 0.755-1.087 1.338-1.892 1.646l-10.399 3.974c-0.582 0.223-1.212 0.292-1.829 0.201s-1.2-0.339-1.694-0.72z" fill="#FFB8B8"/>
<path d="m386.98 165c6.94-1.866 6.212 7.857 11.507 12.638l10.411-8.242-6.03-29.278c-1.618 0.464-3.107 1.299-4.348 2.438-1.241 1.14-2.2 2.553-2.803 4.128l-8.737 18.316z" fill="#34D399"/>
<path d="m399.89 219.6h52.473c-8.492-22.949-7.665-46.551-0.435-70.603 0.122-0.4 0.101-0.829-0.06-1.214-0.16-0.385-0.45-0.702-0.818-0.896l-15.061-7.895c-5.912 3.858-12.267 2.672-18.98-2.612l-16.374 4.478c4.457 26.846 4.584 53.141-0.745 78.742z" fill="#34D399"/>
<path d="m413.01 330.99-21.867 0.929c-0.952 0.041-1.886-0.273-2.621-0.882-0.735-0.608-1.22-1.467-1.361-2.413-0.142-0.954 0.076-1.928 0.612-2.729 0.537-0.802 1.352-1.373 2.287-1.603l3.709-0.912 14.578-8.473c2.16 2.243 5.134 4.139 8.769 5.754l0.043 5.957c8e-3 1.126-0.42 2.211-1.194 3.026-0.774 0.816-1.833 1.298-2.955 1.346z" fill="#2F2E41"/>
<path d="M483.783 332H0.175903V330.801H484L483.783 332Z" fill="#B4B1D5"/>
<path d="m445.88 330.66 21.868 0.929c0.952 0.041 1.885-0.273 2.62-0.882 0.735-0.608 1.22-1.467 1.361-2.413 0.142-0.954-0.076-1.928-0.612-2.729-0.537-0.802-1.352-1.373-2.287-1.603l-3.709-0.912-14.578-8.473c-2.16 2.243-5.134 4.139-8.769 5.754l-0.043 5.957c-8e-3 1.126 0.42 2.211 1.194 3.026 0.774 0.816 1.833 1.298 2.955 1.346z" fill="#2F2E41"/>
<path d="m424.82 130.79c6.577 0 11.909-5.347 11.909-11.942s-5.332-11.942-11.909-11.942-11.908 5.347-11.908 11.942 5.331 11.942 11.908 11.942z" fill="#FFB8B8"/>
<path d="m443.43 215.87-3.935 7.671c-0.347 0.677-0.547 1.42-0.588 2.18-0.04 0.76 0.08 1.52 0.354 2.23 0.273 0.711 0.694 1.355 1.233 1.89 0.539 0.536 1.186 0.951 1.897 1.218 0.752 0.283 1.558 0.394 2.358 0.323 0.801-0.07 1.575-0.319 2.267-0.729s1.283-0.97 1.731-1.639c0.447-0.669 0.74-1.43 0.856-2.227l1.642-11.291 5.954-28.361-0.372-14.181h-11.909c4.062 10.547 2.047 26.105-1.488 42.916z" fill="#FFB8B8"/>
<path d="m443.06 174.45h16.003l-2.323-17.598c-0.315-2.387-1.221-4.656-2.635-6.602-1.415-1.945-3.293-3.504-5.462-4.535l-5.583 28.735z" fill="#34D399"/>
<path d="m437.48 112.27c0.238-1.595 0.138-3.223-0.293-4.777-0.432-1.554-1.185-2.999-2.21-4.242-2.032-2.411-5.438-4.3839-11.088-3.453-12.327 2.031-15.882 12.322-14.675 14.911 1.208 2.588 4.91 8.587 4.91 8.587s-2.717-5.939 0.232-7.148c2.949-1.208 14.361-5.971 18.344-3.825 1.127 0.567 2.084 1.425 2.774 2.484s1.087 2.283 1.152 3.547l0.854-6.084z" fill="#2F2E41"/>
<path d="m233.66 62.566-4.788 2.4362c-5.515-10.89-12.821-20.769-21.611-29.222-43.17-41.617-112.05-40.256-153.56 3.0331-41.502 43.29-40.145 112.37 3.0246 153.98 8.2163 7.937 17.629 14.525 27.892 19.522l-2.3422 4.844c-16.267-7.92-30.421-19.609-41.292-34.099s-18.149-31.367-21.23-49.235-1.8788-36.215 3.5086-53.525 14.805-33.086 27.474-46.025c12.67-12.939 28.228-22.668 45.388-28.385 17.161-5.7171 35.432-7.2574 53.304-4.4936 17.871 2.7638 34.831 9.7523 49.477 20.388 14.646 10.636 26.558 24.614 34.751 40.779z" fill="#E6E6E6"/>
<path d="m71.669 162.73c-7.0427 7.346-10.887 17.197-10.687 27.385 0.2001 10.188 4.428 19.879 11.754 26.942 7.3257 7.062 17.149 10.917 27.309 10.716 10.16-0.201 19.825-4.44 26.867-11.787l6.596-6.88-55.242-53.257-6.5963 6.881z" fill="#E6E6E6"/>
<path d="m74.564 151.94c-1.5676 1.639-2.4229 3.834-2.3783 6.105 0.0446 2.27 0.9854 4.43 2.6162 6.006l50.669 48.846c1.633 1.575 3.823 2.434 6.088 2.389 2.265-0.044 4.419-0.989 5.989-2.627s2.427-3.834 2.382-6.105c-0.044-2.271-0.987-4.432-2.62-6.006l-50.668-48.847c-1.6343-1.572-3.8237-2.43-6.0879-2.385-2.2641 0.045-4.4182 0.988-5.9895 2.624z" fill="#535461"/>
<path d="m226.53 112.08 6.596-6.881c7.043-7.346 10.887-17.197 10.687-27.385s-4.428-19.879-11.754-26.942c-3.627-3.4968-7.906-6.243-12.591-8.0818-4.686-1.8387-9.687-2.7339-14.718-2.6345-10.159 0.2006-19.824 4.4404-26.866 11.786l-6.597 6.8805 55.243 53.257z" fill="#E6E6E6"/>
<path d="m167.25 55.263c-1.568 1.6389-2.423 3.8344-2.379 6.1048 0.045 2.2705 0.986 4.4305 2.616 6.0062l50.669 48.847c1.634 1.572 3.823 2.43 6.087 2.385 2.264-0.046 4.417-0.991 5.986-2.628s2.426-3.832 2.383-6.102c-0.044-2.27-0.985-4.43-2.616-6.005l-50.669-48.846c-1.634-1.572-3.824-2.4297-6.088-2.3849-2.264 0.0447-4.418 0.9882-5.989 2.6235z" fill="#535461"/>
<path d="m188.62 168.15v-3.969s17.27-9.741 31.302 0v3.608l-31.302 0.361z" fill="#535461"/>
<path d="m345.86 168.15v-3.969s17.27-9.741 31.302 0v3.608l-31.302 0.361z" fill="#535461"/>
<path d="m240.44 167.79h-16.91s-4.318-5.051-18.71-4.69c-14.391 0.361-17.27 4.69-17.27 4.69s-14.212 9.561-17.45 21.467c0 0-17.45 52.496-17.81 93.627-0.359 41.131 15.472 46.903 23.747 47.986 8.275 1.082 23.027-0.361 37.418-36.801l6.117-21.287s1.079-12.628 14.032-4.691c12.952 7.938 24.466-4.329 24.466-4.329h48.572s16.191 10.102 30.942 2.165c0 0 5.757-7.577 11.154 18.039 0 0 16.55 52.677 42.096 47.265 25.545-5.412 22.667-49.429 22.667-49.429s-3.418-67.289-17.45-91.101c0 0-13.492-24.715-22.487-25.797 0 0-19.429-3.608-26.985-0.361l-4.317 3.608-101.82-0.361z" fill="#E6E6E6"/>
<path d="m201.22 234.53c17.288 0 31.303-14.053 31.303-31.389s-14.015-31.389-31.303-31.389c-17.287 0-31.302 14.053-31.302 31.389s14.015 31.389 31.302 31.389z" fill="#535461"/>
<path d="m364.56 234.53c17.288 0 31.302-14.053 31.302-31.389s-14.014-31.389-31.302-31.389-31.302 14.053-31.302 31.389 14.014 31.389 31.302 31.389z" fill="#535461"/>
<path d="m206.67 196.14-4.174 3.701c-0.353 0.312-0.808 0.485-1.279 0.485s-0.925-0.173-1.279-0.485l-4.181-3.701c-0.204-0.181-0.368-0.403-0.481-0.652-0.113-0.248-0.172-0.518-0.173-0.792v-10.185c1e-3 -0.514 0.205-1.007 0.568-1.37s0.854-0.567 1.367-0.567h8.365c0.513-1e-3 1.005 0.202 1.368 0.565 0.363 0.362 0.567 0.855 0.568 1.369v10.181c-2e-3 0.276-0.063 0.548-0.178 0.798-0.116 0.25-0.283 0.473-0.491 0.653z" fill="#E6E6E6"/>
<path d="m206.67 210.14-4.174-3.698c-0.353-0.312-0.808-0.484-1.279-0.484s-0.925 0.172-1.279 0.484l-4.181 3.702c-0.204 0.18-0.368 0.402-0.481 0.651s-0.172 0.518-0.173 0.792v10.174c-1e-3 0.514 0.201 1.007 0.563 1.371s0.853 0.569 1.365 0.57h8.372c0.513 1e-3 1.005-0.202 1.368-0.565 0.363-0.362 0.567-0.855 0.568-1.369v-10.178c-2e-3 -0.275-0.063-0.547-0.178-0.797-0.116-0.25-0.283-0.473-0.491-0.653z" fill="#E6E6E6"/>
<path d="m194.24 208.62 3.692-4.192c0.311-0.355 0.482-0.811 0.482-1.283s-0.171-0.928-0.482-1.283l-3.692-4.192c-0.18-0.205-0.402-0.369-0.65-0.483-0.248-0.113-0.517-0.172-0.789-0.174h-10.146c-0.513 1e-3 -1.004 0.206-1.367 0.57-0.362 0.364-0.565 0.857-0.565 1.371v8.389c-1e-3 0.514 0.201 1.007 0.563 1.371s0.853 0.569 1.365 0.57h10.153c0.273-3e-3 0.542-0.064 0.789-0.178 0.247-0.115 0.468-0.28 0.647-0.486z" fill="#E6E6E6"/>
<path d="m208.2 208.62-3.684-4.196c-0.312-0.354-0.484-0.81-0.484-1.283 0-0.472 0.172-0.928 0.484-1.282l3.692-4.193c0.18-0.205 0.401-0.369 0.649-0.482 0.248-0.114 0.517-0.173 0.79-0.174h10.146c0.512-1e-3 1.004 0.202 1.367 0.565 0.363 0.362 0.568 0.855 0.569 1.368v8.396c1e-3 0.514-0.202 1.007-0.564 1.371-0.361 0.364-0.852 0.569-1.365 0.57h-10.15c-0.274 0-0.546-0.059-0.796-0.173s-0.473-0.28-0.654-0.487z" fill="#E6E6E6"/>
<path d="m243.67 260.15c12.519 0 22.667-10.177 22.667-22.73 0-12.554-10.148-22.73-22.667-22.73s-22.667 10.176-22.667 22.73c0 12.553 10.148 22.73 22.667 22.73z" fill="#535461"/>
<path d="m322.11 260.15c12.519 0 22.667-10.177 22.667-22.73 0-12.554-10.148-22.73-22.667-22.73-12.518 0-22.667 10.176-22.667 22.73 0 12.553 10.149 22.73 22.667 22.73z" fill="#535461"/>
<path d="m243.67 252.57c8.346 0 15.112-6.784 15.112-15.153s-6.766-15.154-15.112-15.154-15.111 6.785-15.111 15.154 6.765 15.153 15.111 15.153z" fill="#E6E6E6"/>
<path d="m243.67 247.88c-2.063 0-4.081-0.614-5.797-1.764-1.716-1.149-3.053-2.783-3.843-4.695-0.789-1.912-0.996-4.016-0.593-6.046 0.402-2.029 1.396-3.894 2.855-5.357s3.319-2.46 5.343-2.863c2.024-0.404 4.122-0.197 6.028 0.595 1.907 0.792 3.536 2.133 4.683 3.854 1.146 1.72 1.758 3.743 1.758 5.813-3e-3 2.774-1.103 5.433-3.059 7.395-1.956 1.961-4.609 3.065-7.375 3.068zm0-20.205c-1.921 0-3.799 0.571-5.397 1.642-1.597 1.07-2.843 2.592-3.578 4.372s-0.927 3.738-0.553 5.628c0.375 1.89 1.3 3.626 2.659 4.988s3.09 2.29 4.974 2.666 3.838 0.183 5.613-0.554c1.775-0.738 3.292-1.986 4.359-3.588 1.068-1.602 1.638-3.486 1.638-5.412-3e-3 -2.583-1.028-5.059-2.849-6.885-1.821-1.827-4.29-2.854-6.866-2.857z" fill="#535461"/>
<path d="m322.11 252.57c8.346 0 15.112-6.784 15.112-15.153s-6.766-15.154-15.112-15.154-15.111 6.785-15.111 15.154 6.765 15.153 15.111 15.153z" fill="#E6E6E6"/>
<path d="m322.11 247.88c-2.063 0-4.081-0.614-5.797-1.764-1.715-1.149-3.053-2.783-3.843-4.695-0.789-1.912-0.996-4.016-0.593-6.046 0.402-2.029 1.396-3.894 2.855-5.357s3.319-2.46 5.343-2.863c2.024-0.404 4.122-0.197 6.028 0.595 1.907 0.792 3.536 2.133 4.683 3.854 1.146 1.72 1.758 3.743 1.758 5.813-3e-3 2.774-1.103 5.433-3.059 7.395-1.956 1.961-4.608 3.065-7.375 3.068zm0-20.205c-1.921 0-3.799 0.571-5.397 1.642-1.597 1.07-2.842 2.592-3.578 4.372-0.735 1.78-0.927 3.738-0.553 5.628 0.375 1.89 1.3 3.626 2.659 4.988s3.09 2.29 4.974 2.666 3.838 0.183 5.613-0.554c1.775-0.738 3.292-1.986 4.359-3.588 1.068-1.602 1.638-3.486 1.638-5.412-3e-3 -2.583-1.028-5.059-2.849-6.885-1.821-1.827-4.29-2.854-6.866-2.857z" fill="#535461"/>
<path d="m283.61 246.44c3.577 0 6.477-2.908 6.477-6.495 0-3.586-2.9-6.494-6.477-6.494-3.576 0-6.476 2.908-6.476 6.494 0 3.587 2.9 6.495 6.476 6.495z" fill="#535461"/>
<path d="m273.71 219.69c0.781 0 1.414-0.635 1.414-1.418s-0.633-1.418-1.414-1.418-1.414 0.635-1.414 1.418 0.633 1.418 1.414 1.418z" fill="#535461"/>
<path d="m279.01 219.69c0.781 0 1.414-0.635 1.414-1.418s-0.633-1.418-1.414-1.418c-0.78 0-1.414 0.635-1.414 1.418s0.634 1.418 1.414 1.418z" fill="#535461"/>
<path d="m278.3 226.42c0.781 0 1.414-0.634 1.414-1.418 0-0.783-0.633-1.417-1.414-1.417s-1.414 0.634-1.414 1.417c0 0.784 0.633 1.418 1.414 1.418z" fill="#535461"/>
<path d="m283.25 226.6c0.795 0 1.44-0.646 1.44-1.443s-0.645-1.444-1.44-1.444c-0.794 0-1.439 0.647-1.439 1.444s0.645 1.443 1.439 1.443z" fill="#535461"/>
<path d="m288.19 226.42c0.781 0 1.414-0.634 1.414-1.418 0-0.783-0.633-1.417-1.414-1.417s-1.414 0.634-1.414 1.417c0 0.784 0.633 1.418 1.414 1.418z" fill="#535461"/>
<path d="m276.18 223.23c0.781 0 1.414-0.635 1.414-1.418s-0.633-1.418-1.414-1.418-1.414 0.635-1.414 1.418 0.633 1.418 1.414 1.418z" fill="#535461"/>
<path d="m280.73 223.35c0.795 0 1.439-0.646 1.439-1.444 0-0.797-0.644-1.443-1.439-1.443s-1.439 0.646-1.439 1.443c0 0.798 0.644 1.444 1.439 1.444z" fill="#535461"/>
<path d="m285.41 223.35c0.795 0 1.439-0.646 1.439-1.444 0-0.797-0.644-1.443-1.439-1.443s-1.439 0.646-1.439 1.443c0 0.798 0.644 1.444 1.439 1.444z" fill="#535461"/>
<path d="m290.31 223.23c0.781 0 1.414-0.635 1.414-1.418s-0.633-1.418-1.414-1.418-1.414 0.635-1.414 1.418 0.633 1.418 1.414 1.418z" fill="#535461"/>
<path d="m283.25 219.74c0.795 0 1.44-0.646 1.44-1.443 0-0.798-0.645-1.444-1.44-1.444-0.794 0-1.439 0.646-1.439 1.444 0 0.797 0.645 1.443 1.439 1.443z" fill="#535461"/>
<path d="m288.29 219.74c0.794 0 1.439-0.646 1.439-1.443 0-0.798-0.645-1.444-1.439-1.444-0.795 0-1.44 0.646-1.44 1.444 0 0.797 0.645 1.443 1.44 1.443z" fill="#535461"/>
<path d="m292.43 219.69c0.781 0 1.414-0.635 1.414-1.418s-0.633-1.418-1.414-1.418-1.414 0.635-1.414 1.418 0.633 1.418 1.414 1.418z" fill="#535461"/>
<path d="m229.82 170.86c-0.666 1e-3 -1.304 0.266-1.774 0.738-0.471 0.472-0.736 1.112-0.736 1.779v7.577c0 0.668 0.265 1.308 0.736 1.779 0.47 0.472 1.108 0.738 1.774 0.739h1.799c0.666-1e-3 1.304-0.267 1.774-0.739 0.471-0.471 0.736-1.111 0.736-1.779v-7.577c0-0.667-0.265-1.307-0.736-1.779-0.47-0.472-1.108-0.737-1.774-0.738h-1.799z" fill="#535461"/>
<path d="m334.88 170.86c-0.666 1e-3 -1.304 0.266-1.775 0.738-0.47 0.472-0.735 1.112-0.736 1.779v7.577c1e-3 0.668 0.266 1.308 0.736 1.78 0.471 0.471 1.109 0.737 1.775 0.738h1.799c0.665-1e-3 1.303-0.267 1.774-0.738 0.471-0.472 0.735-1.112 0.736-1.78v-7.577c-1e-3 -0.667-0.265-1.307-0.736-1.779s-1.109-0.737-1.774-0.738h-1.799z" fill="#535461"/>
<path d="m364.92 192.68c4.769 0 8.635-3.877 8.635-8.659s-3.866-8.659-8.635-8.659-8.635 3.877-8.635 8.659 3.866 8.659 8.635 8.659z" fill="#E6E6E6"/>
<path d="m346.57 211.08c4.769 0 8.635-3.877 8.635-8.66 0-4.782-3.866-8.659-8.635-8.659s-8.635 3.877-8.635 8.659c0 4.783 3.866 8.66 8.635 8.66z" fill="#E6E6E6"/>
<path d="m383.99 210c4.769 0 8.635-3.877 8.635-8.659s-3.866-8.659-8.635-8.659-8.635 3.877-8.635 8.659 3.866 8.659 8.635 8.659z" fill="#E6E6E6"/>
<path d="m366.36 229.12c4.769 0 8.635-3.876 8.635-8.659 0-4.782-3.866-8.659-8.635-8.659s-8.635 3.877-8.635 8.659c0 4.783 3.866 8.659 8.635 8.659z" fill="#E6E6E6"/>
<path d="m246.1 165.81c-1.93 2e-3 -3.78 0.772-5.144 2.14s-2.132 3.223-2.134 5.158v32.291c2e-3 1.935 0.77 3.79 2.134 5.158s3.214 2.138 5.144 2.14h73.937c1.93-2e-3 3.779-0.772 5.144-2.14 1.364-1.368 2.132-3.223 2.134-5.158v-32.291c-2e-3 -1.935-0.77-3.79-2.134-5.158-1.365-1.368-3.214-2.138-5.144-2.14h-73.937z" fill="#535461"/>
<path d="m370.79 187.99h-11.71l5.653-9.718 6.057 9.718zm-10.457-0.722h9.158l-4.737-7.6-4.421 7.6z" fill="#535461"/>
<path d="m351.43 206.75h-9.714v-8.659h9.714v8.659zm-8.994-0.722h8.275v-7.216h-8.275v7.216z" fill="#535461"/>
<path d="m383.99 206.75c-1.068 0-2.111-0.317-2.998-0.912-0.888-0.595-1.58-1.44-1.988-2.429-0.409-0.989-0.516-2.077-0.307-3.127 0.208-1.05 0.722-2.014 1.477-2.771 0.754-0.757 1.716-1.272 2.763-1.481s2.132-0.101 3.118 0.308c0.986 0.41 1.829 1.103 2.422 1.993s0.91 1.937 0.91 3.007c-2e-3 1.435-0.571 2.811-1.583 3.825-1.011 1.015-2.383 1.585-3.814 1.587zm0-10.102c-0.925 0-1.83 0.275-2.599 0.79-0.769 0.516-1.368 1.248-1.722 2.105s-0.447 1.8-0.267 2.71c0.181 0.91 0.626 1.746 1.28 2.402 0.655 0.656 1.488 1.102 2.395 1.283 0.908 0.181 1.848 0.088 2.703-0.267 0.854-0.355 1.585-0.956 2.099-1.727s0.788-1.678 0.788-2.606c-1e-3 -1.243-0.494-2.436-1.371-3.315s-2.066-1.374-3.306-1.375z" fill="#535461"/>
<path d="m362.48 216.15-0.509 0.51 8.095 8.118 0.509-0.51-8.095-8.118z" fill="#535461"/>
<path d="m370.25 216.14-8.274 7.939 0.498 0.521 8.274-7.939-0.498-0.521z" fill="#535461"/>
<path d="m76.48 83.365c-19.645 5.431-41.156 9.5193-48.865 3.1768 4.2202-7.0453 6.6543-13.99 6.8608-20.807 0.0465-3.1195 1.3065-6.0974 3.5113-8.2987 1.4596-1.414 3.2214-2.4759 5.1515-3.1048 1.9302-0.629 3.9779-0.8085 5.9876-0.5249l5.0983 0.7174c0.1716 0.0241 0.3423 0.0515 0.5121 0.0822 2.4471 0.4649 4.6876 1.6866 6.407 3.4936 1.7193 1.807 2.8312 4.1085 3.1795 6.5815 1.0742 7.3931 4.6862 13.793 12.156 18.684z" fill="#2F2E41"/>
<path d="m95.43 153.5 7.6374 1.579c0.583 0.121 1.132 0.37 1.608 0.73 0.475 0.36 0.864 0.822 1.139 1.352 0.275 0.529 0.429 1.114 0.451 1.711s-0.089 1.191-0.325 1.739c-0.228 0.53-0.566 1.005-0.993 1.392s-0.932 0.677-1.481 0.851-1.129 0.228-1.7 0.157c-0.571-0.07-1.121-0.263-1.611-0.566l-11.682-7.205-19.842-46.776 10.277-2.981 16.522 48.017z" fill="#A0616A"/>
<path d="m41.025 214.88-5.7827 1.686-4.3771-9.065 4.4511-2.326 5.7087 9.705z" fill="#A0616A"/>
<path d="m38.087 253.72-7.095-1.883 1.1107-12.224 6.106 0.377-0.1217 13.73z" fill="#A0616A"/>
<path d="m38.827 206.41-7.5146 4.959-28.902-32.783c-0.62691-0.711-1.0898-1.552-1.3559-2.462-0.26603-0.911-0.32862-1.87-0.18332-2.808 0.1453-0.938 0.49493-1.832 1.024-2.619s1.2246-1.447 2.0371-1.934l36.005-21.574 5.5146 15.886-18.748 17.642 12.123 25.693z" fill="#2F2E41"/>
<path d="m45.156 223.57c-0.0188 0.025-0.0377 0.049-0.0567 0.074-0.4803 2.82-1.3238 5.392-3.2075 7.254-0.5585 1.263-1.5613 2.276-2.8169 2.844-1.2557 0.569-2.6762 0.654-3.9904 0.239-1.2394-0.391-2.3047-1.202-3.0137-2.294-0.7091-1.092-1.0177-2.397-0.8733-3.692l1.4042-12.586c3.3684-0.777 5.9374-2.698 7.2377-6.435l3.2737 2.236c0.9688 0.657 1.794 1.504 2.4253 2.491 0.6314 0.987 1.0556 2.092 1.2467 3.249 0.1912 1.156 0.1453 2.34-0.1348 3.478-0.2801 1.139-0.7885 2.208-1.4943 3.142z" fill="#2F2E41"/>
<path d="m48.718 80.67c6.3878 0 11.566-5.1928 11.566-11.598s-5.1783-11.598-11.566-11.598-11.566 5.1927-11.566 11.598 5.1783 11.598 11.566 11.598z" fill="#A0616A"/>
<path d="m58.734 87.613-18.234 15.143-1.4201-6.2335 3.1826-4.8649c0.8833-4.7731 0.313-10.036-1.2047-15.62l11.896 0.011c0.5136 4.5117 2.2652 8.4477 5.7798 11.564z" fill="#A0616A"/>
<path d="m63.868 127.34-24.616 7.519-1.9151-8.779c-4.6131-6.211-6.6184-11.881-3.6004-16.506l-1.5187-6.963c4.3567-3.4393 7.7827-6.9587 9.6639-10.61l15.145-5.9344 11.134 0.687 3.2878 11.048-7.5807 29.538z" fill="#EC4899"/>
<path d="m81.356 106.72c-5.2471-0.056-10.382 1.522-14.698 4.516l1.5027-24.491c1.5253 0.2043 2.9713 0.8033 4.1957 1.738s2.185 2.1729 2.7874 3.5929l6.2119 14.644z" fill="#EC4899"/>
<path d="m38.75 242.92-7.813-1.928 1.15-66.573 10.491-11.521-2.3485-14.605-1.5196-16.362 25.627-6.373c8.662 15.772 13.898 30.112 6.2552 39.069l-31.843 78.293z" fill="#2F2E41"/>
<path d="m36.956 265.4c-0.035 0.014-0.0701 0.027-0.1052 0.041-2.2687 2.642-4.7614 4.796-7.8953 5.553-1.3747 0.967-3.0563 1.392-4.7237 1.194-1.6675-0.197-3.204-1.004-4.3161-2.265-1.0488-1.19-1.6529-2.708-1.7089-4.295s0.4396-3.144 1.402-4.405l9.354-12.257c4.0036 1.312 7.8898 0.926 11.59-2.157l2.0168 4.398c0.6002 1.296 0.9307 2.701 0.9715 4.129 0.0407 1.428-0.2092 2.85-0.7345 4.178-0.5252 1.328-1.3149 2.535-2.3207 3.547-1.0059 1.012-2.2068 1.808-3.5295 2.339z" fill="#2F2E41"/>
<path d="m8.4144 161.51-6.8578 5.888c-0.56908 0.488-1.0059 1.113-1.2701 1.816-0.26415 0.703-0.34704 1.461-0.24099 2.205 0.10605 0.744 0.39762 1.449 0.84768 2.049 0.45005 0.601 1.044 1.078 1.7269 1.387 1.028 0.465 2.1937 0.522 3.2616 0.158 1.0679-0.364 1.9583-1.12 2.4912-2.117l4.9591-9.275 22.742-41.618-8.5535-1.612-19.107 41.119z" fill="#A0616A"/>
<path d="m37.445 123.17c-4.442-1.345-8.603-2.136-11.83-1.091 0.6764-8.394 2.0706-15.893 6.6027-19.477l6.4427 0.76-1.2154 19.808z" fill="#EC4899"/>
<path d="m61.63 66.382-24.738-1.5263 0.3044-4.9614c8.6355-5.8389 16.881-5.3301 24.738 1.5264l-0.3045 4.9613z" fill="#2F2E41"/>
</g>
<defs>
<clipPath id="a">
<rect width="484" height="332" fill="#fff"/>
</clipPath>
</defs>
</svg>
