<?xml version="1.0" encoding="UTF-8"?>
<svg fill="none" viewBox="0 0 360 59" xmlns="http://www.w3.org/2000/svg">
<g clip-path="url(#b)">
<g filter="url(#a)">
<path d="m26.505 24.403h23.435c1.5017 2.1862 2.2525 4.8465 2.2525 7.9809 0 3.108-0.6454 5.6366-1.9364 7.5857h-1.6203v11.853c-5.1903 4.5039-12.04 6.756-20.55 6.756-5.1903 0-9.8009-0.9219-13.832-2.7656-4.3998-1.9755-7.8117-4.8597-10.236-8.6525-2.661-4.1616-3.9915-9.2715-3.9915-15.33 0-8.6129 2.582-15.277 7.7459-19.992 4.9004-4.504 11.54-6.756 19.918-6.756 4.1363 0 8.0356 0.61897 11.698 1.8569 3.6885 1.2379 6.5998 2.7788 8.7338 4.6226 0 1.5803-0.1975 3.5162-0.5928 5.8078-0.3688 2.2915-0.8431 4.043-1.4227 5.2547h-20.827c-0.8431 0.8954-1.6467 2.1861-2.4107 3.8718-0.7377 1.6857-1.1066 3.6217-1.1066 5.8078 0 3.0027 0.7509 5.3601 2.2527 7.0722 1.3173 1.554 3.0035 2.331 5.0585 2.331 0.8431 0 1.2647-0.2898 1.2647-0.8693v-0.9086h-0.4347c-1.739 0-3.188-0.6717-4.3472-2.015-1.1329-1.3696-1.6994-3.3187-1.6994-5.8473 0-3.1607 0.8826-5.7157 2.6478-7.6648zm48.372 10.904v6.9141c0.1844 0.1844 0.4874 0.2766 0.9089 0.2766 0.4216 0 0.7246-0.1449 0.9091-0.4347 0.1843-0.2897 0.2766-0.7901 0.2766-1.5013v-5.6497c0-2.5286-0.1054-4.2012-0.3162-5.0177-0.2108-0.8428-0.606-1.2643-1.1856-1.2643-0.3689 0-0.685 0.1317-0.9485 0.3951 0.2372 2.6075 0.3557 4.7015 0.3557 6.2819zm-14.78 17.502c-4.3208-4.1615-6.4812-9.7982-6.4812-16.91 0-7.138 2.0287-12.762 6.086-16.87 4.0837-4.1352 9.4321-6.2028 16.045-6.2028 6.6129 0 11.961 2.1466 16.045 6.4399 4.0578 4.2933 6.0863 9.8904 6.0863 16.791 0 6.8746-1.9627 12.34-5.889 16.396-3.8993 4.0563-9.2078 6.0843-15.926 6.0843s-12.04-1.9095-15.966-5.7288zm80.067-9.8772c0.869-0.158 1.304-0.5926 1.304-1.3038 0-0.7375-0.237-1.554-0.711-2.4495-0.448-0.9219-1.12-1.7911-2.016-2.6076-2.345-2.1072-5.519-3.1607-9.524-3.1607-1.976 0-3.821 0.3292-5.533 0.9877-1.818-0.9218-3.267-2.3837-4.347-4.3855-1.08-2.0017-1.62-4.1616-1.62-6.4794 0-6.0581 2.529-10.733 7.588-14.026 4.347-2.8183 9.709-4.2274 16.084-4.2274 4.742 0 8.734 0.51362 11.975 1.5408 3.24 1.0009 5.889 2.2915 7.943 3.8719 0.606 1.7383 0.909 3.5426 0.909 5.4127 0 1.87-0.25 3.569-0.75 5.0966-0.501 1.5278-1.226 2.7525-2.174 3.6743-0.896-0.6584-2.516-1.3301-4.861-2.0149s-4.479-1.0273-6.403-1.0273c-1.923 0-3.213 0.1186-3.873 0.3556-0.632 0.2371-0.948 0.6059-0.948 1.1063 0 0.2371 0.039 0.4609 0.119 0.6717 0.922-0.2371 2.107-0.3556 3.557-0.3556 5.137 0 9.326 1.2116 12.567 3.6348 3.82 2.8973 5.73 7.2433 5.73 13.038 0 5.1098-2.068 9.3504-6.205 12.722-4.478 3.6085-10.499 5.4127-18.06 5.4127-4.163 0-7.772-0.316-10.828-0.9482-3.057-0.6057-6.034-1.6857-8.932-3.2397-1.976-2.871-2.964-5.7815-2.964-8.7315 0-2.9763 1.015-5.4391 3.043-7.3881 2.029-1.9492 4.518-2.9237 7.469-2.9237 2.978 0 5.401 0.6058 7.272 1.8174 1.897 1.2116 3.294 3.1871 4.189 5.9263zm49.202 15.606c-6.85 0-12.317-2.1071-16.401-6.3214-4.057-4.2406-6.085-9.9167-6.085-17.028s2.305-12.735 6.916-16.87c4.11-3.6875 9.247-5.5313 15.412-5.5313 5.48 0 10.025 1.3565 13.635 4.0694 3.609 2.6867 5.414 6.3478 5.414 10.984 0 3.2135-1.001 5.8342-3.004 7.8623-1.976 2.0018-4.584 3.0027-7.824 3.0027-2.635 0-4.835-0.698-6.6-2.094-1.739-1.4223-2.767-3.2661-3.083-5.5312-1.16 0-1.739 0.4214-1.739 1.2642 0 1.9228 0.949 3.6875 2.846 5.2942 2.187 1.8964 4.9 2.8446 8.14 2.8446 3.267 0 5.968-0.6979 8.103-2.0939 1.317 2.0281 1.975 4.4909 1.975 7.3882 0 3.3714-1.448 6.2556-4.347 8.6524-3.319 2.7393-7.772 4.1089-13.358 4.1089zm41.22-23.231v6.9141c0.184 0.1844 0.487 0.2766 0.908 0.2766 0.422 0 0.726-0.1449 0.909-0.4347 0.185-0.2897 0.277-0.7901 0.277-1.5013v-5.6497c0-2.5286-0.106-4.2012-0.316-5.0177-0.211-0.8428-0.606-1.2643-1.186-1.2643-0.368 0-0.684 0.1317-0.948 0.3951 0.237 2.6075 0.356 4.7015 0.356 6.2819zm-14.781 17.502c-4.32-4.1615-6.481-9.7982-6.481-16.91 0-7.138 2.029-12.762 6.086-16.87 4.084-4.1352 9.432-6.2028 16.045-6.2028s11.962 2.1466 16.045 6.4399c4.058 4.2933 6.086 9.8904 6.086 16.791 0 6.8746-1.963 12.34-5.888 16.396-3.899 4.0563-9.208 6.0843-15.927 6.0843-6.718 0-12.04-1.9095-15.966-5.7288zm51.574 5.0177c-3.135 0-5.639-0.5663-7.509-1.6988-2.081-1.1853-3.122-2.9369-3.122-5.2547v-20.347c-1.554-2.1862-2.332-4.8728-2.332-8.0599 0-3.2133 0.778-5.9922 2.332-8.3364h6.046c3.11 0 5.335 1.0009 6.679 3.0027-0.658 0.7375-1.238 1.6726-1.739 2.8051-0.5 1.1326-0.75 1.9492-0.75 2.4496 0 0.4741 0.118 0.8297 0.355 1.0667 0.263 0.2371 0.633 0.3556 1.106 0.3556 0.923-3.6612 2.675-6.3477 5.257-8.0598 2.134-1.4487 4.769-2.173 7.904-2.173 3.899 0 6.956 0.8297 9.169 2.4891 0.79 2.1071 1.185 4.6884 1.185 7.7437 0 3.0291-0.606 5.7815-1.818 8.2574-0.896 0.4741-2.134 0.8824-3.715 1.2248-1.581 0.316-3.174 0.4741-4.782 0.4741-1.607 0-3.055-0.1054-4.347-0.3161-1.265-0.2371-2.187-0.4478-2.766-0.6321-0.211 0.2107-0.316 0.5136-0.316 0.9086 0 0.3952 0.25 0.6981 0.751 0.9088 0.527 0.1843 1.396 0.3951 2.607 0.6321v19.834c-2.871 1.8174-6.27 2.7261-10.195 2.7261zm49.005 0.7111c-7.299 0-13.056-2.028-17.271-6.0843-4.321-4.0826-6.481-9.6665-6.481-16.752 0-7.1116 2.226-12.748 6.679-16.91 4.11-3.8719 9.313-5.8079 15.61-5.8079s11.342 1.7385 15.136 5.2153c3.821 3.4504 5.73 7.7042 5.73 12.761 0 4.5039-1.567 7.9017-4.702 10.193-2.898 2.1598-6.85 3.2398-11.856 3.2398-3.742 0-6.903-0.777-9.485-2.3311-0.21 0.1581-0.316 0.4478-0.316 0.8692 0 0.7902 1.041 1.5146 3.122 2.173 2.082 0.7112 4.439 1.0667 7.074 1.0667 2.661 0 5.072-0.3292 7.233-0.9876 2.186-0.6849 3.938-1.4882 5.255-2.4101 0.633 0.5531 1.133 1.5804 1.502 3.0817 0.395 1.475 0.593 2.8315 0.593 4.0694 0 1.2116-0.118 2.2915-0.356 3.2397-2.055 1.7384-4.162 2.9764-6.323 3.7139-3.057 1.1063-6.771 1.6593-11.144 1.6593zm-0.515-26.747c1.318 0 1.977-0.5005 1.977-1.5014 0-0.9482-0.699-1.4223-2.095-1.4223-1.397 0-2.2 0.7506-2.411 2.252 0.738 0.4477 1.581 0.6717 2.529 0.6717zm38.414 2.4099c-1.37-0.6057-2.582-0.9086-3.636-0.9086s-1.581 0.4872-1.581 1.4618v0.1581c3.004 0.2107 5.546 1.4223 7.628 3.6348 2.081 2.1861 3.122 4.82 3.122 7.9018 0 3.0553-1.12 5.7024-3.359 7.9412-2.267 2.2125-4.967 3.3188-8.102 3.3188s-5.823-1.1063-8.062-3.3188c-2.213-2.2388-3.319-4.9123-3.319-8.0203 0-2.1072 0.526-4.043 1.58-5.8078 1.08-1.7911 2.503-3.2002 4.268-4.2274-1.581-2.7393-2.845-5.8869-3.794-9.4427-0.948-3.5558-1.422-7.2433-1.422-11.062v-12.88c1.106-0.79017 2.542-1.4355 4.307-1.9359 1.766-0.50044 3.557-0.75066 5.375-0.75066 3.952 0 6.797 1.0009 8.536 3.0027 1.766 1.9754 2.648 5.3205 2.648 10.035v2.5286c0 6.0844-1.397 12.208-4.189 18.372z" fill="#fff"/>
</g>
<path d="m26.505 24.403v-0.8428h-0.374l-0.251 0.2771 0.625 0.5657zm23.435 0 0.6949-0.4771-0.2512-0.3657h-0.4437v0.8428zm0.3161 15.567v0.8428h0.4529l0.2501-0.3775-0.703-0.4653zm-1.6203 0v-0.8429h-0.8431v0.8429h0.8431zm0 11.853 0.5526 0.6365 0.2905-0.2521v-0.3844h-0.8431zm-34.382 3.9904 0.3509-0.7665-0.0054-0.0025-0.3455 0.769zm-10.236-8.6525 0.71047-0.4538-1.1e-4 -2e-4 -0.71036 0.454zm3.7544-35.321 0.56855 0.6224 0.00205-0.0019-0.5706-0.6205zm31.616-4.8991-0.2701 0.79845 0.0017 5.8e-4 0.2684-0.79903zm8.7338 4.6226h0.8431v-0.3856l-0.2918-0.2522-0.5513 0.6378zm-0.5928 5.8078-0.8308-0.1432-0.0015 0.0092 0.8323 0.134zm-1.4227 5.2547v0.8428h0.5313l0.2293-0.4792-0.7606-0.3636zm-20.827 0v-0.8429h-0.3643l-0.2497 0.2652 0.614 0.5777zm-2.4108 3.8718-0.7679-0.3479-0.0045 0.0101 0.7724 0.3378zm1.1461 12.88 0.6432-0.545-0.0046-0.0054-0.0047-0.0054-0.6339 0.5558zm6.3232 0.5531h0.8431v-0.8429h-0.8431v0.8429zm-4.7819-2.015-0.6497 0.5371 0.0056 0.0068 0.0057 0.0067 0.6384-0.5506zm0.9485-12.669h23.435v-1.6857h-23.435v1.6857zm22.74-0.3657c1.3889 2.0217 2.1046 4.5079 2.1046 7.5037h1.6861c0-3.2731-0.7859-6.1074-2.4007-8.458l-1.39 0.9543zm2.1046 7.5037c0 2.996-0.6224 5.3479-1.7963 7.1203l1.4059 0.9307c1.408-2.1258 2.0765-4.831 2.0765-8.051h-1.6861zm-1.0934 6.7428h-1.6203v1.6857h1.6203v-1.6857zm-2.4634 0.8429v11.853h1.6862v-11.853h-1.6862zm0.2905 11.216c-5.0029 4.3414-11.641 6.5497-19.998 6.5497v1.6857c8.6628 0 15.725-2.2957 21.103-6.9623l-1.1052-1.2731zm-19.998 6.5497c-5.0898 0-9.5776-0.9037-13.481-2.6892l-0.7016 1.5329c4.1584 1.902 8.8919 2.842 14.183 2.842v-1.6857zm-13.487-2.6917c-4.2613-1.9132-7.5415-4.6927-9.8706-8.3373l-1.4209 0.9076c2.5187 3.9412 6.0622 6.9298 10.601 8.9675l0.6908-1.5378zm-9.8707-8.3375c-2.5565-3.9982-3.8588-8.9418-3.8588-14.876h-1.6862c0 6.1824 1.3588 11.458 4.1242 15.783l1.4207-0.9079zm-3.8588-14.876c0-8.4352 2.5217-14.85 7.4714-19.369l-1.1371-1.2447c-5.3782 4.9103-8.0204 11.823-8.0204 20.614h1.6862zm7.4734-19.371c4.7076-4.3267 11.124-6.5337 19.347-6.5337v-1.6857c-8.5328 0-15.395 2.2971-20.489 6.9784l1.1412 1.241zm19.347-6.5337c4.051 0 7.8585 0.60596 11.428 1.8125l0.5401-1.5969c-3.7551-1.2694-7.7461-1.9013-11.968-1.9013v1.6857zm11.43 1.8131c3.6214 1.2154 6.4249 2.7108 8.451 4.4613l1.1025-1.2755c-2.242-1.937-5.2612-3.5234-9.0168-4.7838l-0.5367 1.5981zm8.1591 3.8236c0 1.5156-0.19 3.4005-0.5805 5.6646l1.6617 0.2864c0.3999-2.319 0.605-4.306 0.605-5.951h-1.6862zm-0.582 5.6738c-0.3639 2.2608-0.8225 3.9203-1.3509 5.025l1.5211 0.7273c0.6308-1.3185 1.1207-3.1622 1.4945-5.4844l-1.6647-0.2679zm-0.5904 4.5458h-20.827v1.6857h20.827v-1.6857zm-21.441 0.2652c-0.9302 0.9881-1.7797 2.3697-2.5647 4.1017l1.5359 0.6957c0.743-1.6395 1.5008-2.8391 2.2567-3.6421l-1.2279-1.1553zm-2.5692 4.1117c-0.7923 1.8104-1.1772 3.8648-1.1772 6.1456h1.6862c0-2.0914 0.3527-3.9089 1.0359-5.47l-1.5449-0.6756zm-1.1772 6.1456c0 3.1409 0.7871 5.7186 2.4618 7.6279l1.2678-1.1115c-1.3288-1.5149-2.0434-3.6519-2.0434-6.5164h-1.6862zm2.4525 7.6171c1.4791 1.7448 3.4014 2.6289 5.7018 2.6289v-1.6857c-1.8098 0-3.2598-0.6699-4.4154-2.0331l-1.2864 1.0899zm5.7018 2.6289c0.4919 0 1.0102-0.0798 1.4261-0.3656 0.4728-0.3249 0.6816-0.8221 0.6816-1.3465h-1.6862c0 0.0427-0.0075 0.0392 0.0054 0.0126 0.0148-0.0306 0.0362-0.0499 0.0439-0.0552 0.0021-0.0015-0.0248 0.0174-0.1059 0.036-0.0811 0.0185-0.1998 0.033-0.3649 0.033v1.6857zm2.1077-1.7121v-0.9086h-1.6862v0.9086h1.6862zm-0.8431-1.7515h-0.4347v1.6857h0.4347v-1.6857zm-0.4347 0c-1.488 0-2.706-0.5606-3.7088-1.7227l-1.2768 1.1012c1.3156 1.5244 2.9957 2.3072 4.9856 2.3072v-1.6857zm-3.6975-1.7092c-0.9644-1.1659-1.506-2.8963-1.506-5.3102h-1.6861c0 2.6433 0.5912 4.811 1.8927 6.3844l1.2994-1.0742zm-1.506-5.3102c0-2.9962 0.8322-5.335 2.4297-7.0991l-1.2499-1.1314c-1.9329 2.1343-2.8659 4.9052-2.8659 8.2305h1.6861zm50.177 10.154h-0.8431v0.3491l0.247 0.2469 0.5961-0.596zm1.7784-12.327-0.8179 0.2044 0.0016 0.0062 0.8163-0.2106zm-2.1341-0.8692-0.5961-0.596-0.2793 0.2792 0.0358 0.3931 0.8396-0.0763zm-14.425 23.784 0.5881-0.604-3e-3 -0.0029-0.5851 0.6069zm-0.3951-33.78-0.6-0.5921h-1e-4l0.6001 0.5921zm32.09 0.2371 0.613-0.5789-0.0017-0.0019-0.6113 0.5808zm0.1973 33.188-0.6053-0.5861-0.0025 0.0021 0.6078 0.584zm-17.955-17.147v6.9141h1.6862v-6.9141h-1.6862zm0.247 7.5101c0.4162 0.4161 0.992 0.5234 1.5051 0.5234v-1.6857c-0.1533 0-0.2474-0.0173-0.2979-0.0326-0.0472-0.0144-0.0395-0.0216-0.0149 0.0028l-1.1923 1.1921zm1.5051 0.5234c0.6345 0 1.2445-0.2347 1.6202-0.825l-1.4225-0.905c-0.0066 0.0104-0.0104 0.0136-0.0105 0.0136-3e-4 4e-4 -7e-4 7e-4 -0.0015 0.0012s-0.0026 0.0017-0.0061 0.0033c-0.0127 0.0061-0.0635 0.0262-0.1796 0.0262v1.6857zm1.6202-0.825c0.323-0.5074 0.4085-1.2212 0.4085-1.9538h-1.6862c0 0.6897-0.099 0.9768-0.1448 1.0488l1.4225 0.905zm0.4085-1.9538v-5.6498h-1.6862v5.6498h1.6862zm0-5.6498c0-2.51-0.1009-4.2908-0.3429-5.2282l-1.6327 0.4212c0.1795 0.6956 0.2894 2.2598 0.2894 4.807h1.6862zm-0.3414-5.222c-0.124-0.496-0.3242-0.9651-0.6573-1.3203-0.3575-0.3813-0.8242-0.5824-1.3462-0.5824v1.6857c0.0405 0 0.0587 0.0067 0.0655 0.0098 0.0068 0.0029 0.0237 0.0112 0.0506 0.0398 0.062 0.0663 0.1648 0.2293 0.2516 0.5762l1.6358-0.4088zm-2.0035-1.9027c-0.595 0-1.1249 0.2222-1.5446 0.6419l1.1923 1.192c0.1071-0.1072 0.2096-0.1482 0.3523-0.1482v-1.6857zm-1.7881 1.3142c0.2361 2.5963 0.3522 4.6618 0.3522 6.2056h1.6862c0-1.6169-0.121-3.7393-0.3591-6.3582l-1.6793 0.1526zm-13 23.101c-4.1255-3.9735-6.2232-9.3743-6.2232-16.303h-1.6861c0 7.2946 2.2231 13.167 6.7393 17.517l1.17-1.214zm-6.2232-16.303c0-6.9718 1.9764-12.362 5.843-16.278l-1.2001-1.1843c-4.2481 4.3021-6.329 10.158-6.329 17.462h1.6861zm5.8429-16.278c3.903-3.9523 9.0238-5.9522 15.445-5.9522v-1.6857c-6.8047 0-12.381 2.1353-16.645 6.4536l1.1999 1.1843zm15.445-5.9522c6.4115 0 11.529 2.0722 15.434 6.1779l1.2225-1.1616c-4.2627-4.4809-9.8419-6.702-16.656-6.702v1.6857zm15.432 6.1759c3.885 4.1108 5.8561 9.488 5.8561 16.212h1.6862c0-7.0773-2.0866-12.894-6.3164-17.37l-1.2259 1.1577zm5.8561 16.212c0 6.7065-1.9096 11.944-5.6512 15.81l1.2115 1.1721c4.1101-4.2463 6.1259-9.9395 6.1259-16.982h-1.6862zm-5.6537 15.812c-3.7097 3.8592-8.7814 5.8255-15.318 5.8255v1.6857c6.8997 0 12.446-2.0899 16.534-6.3432l-1.2157-1.168zm-15.318 5.8255c-6.5514 0-11.644-1.8571-15.378-5.49l-1.176 1.2081c4.1171 4.0055 9.6686 5.9676 16.554 5.9676v-1.6857zm64.101-14.763-0.801 0.2619 0.228 0.6989 0.724-0.1315-0.151-0.8293zm0.593-3.7533-0.758 0.3682 6e-3 0.0132 6e-3 0.013 0.746-0.3944zm-2.016-2.6076 0.568-0.6228-4e-3 -0.0041-0.564 0.6269zm-15.057-2.173-0.381 0.7517 0.334 0.1695 0.35-0.1346-0.303-0.7866zm1.62-24.891-0.458-0.70716-2e-3 8.4e-4 0.46 0.70632zm28.059-2.6866-0.254 0.80346 6e-3 0.00184 0.248-0.8053zm7.944 3.8718 0.796-0.2773-0.083-0.2375-0.199-0.1532-0.514 0.668zm-2.015 14.184-0.5 0.6791 0.575 0.4228 0.513-0.4975-0.588-0.6044zm-15.137-2.6866-0.285-0.793-0.011 0.0039 0.296 0.7891zm-0.829 1.7779-0.79 0.296 0.266 0.7089 0.733-0.1885-0.209-0.8164zm16.124 3.2793 0.509-0.6715-4e-3 -0.0035-0.505 0.675zm-0.475 25.76 0.529 0.6563 4e-3 -3e-3 -0.533-0.6533zm-28.889 4.4645 0.171-0.8254-7e-3 -0.0013-0.164 0.8267zm-8.931-3.2397-0.695 0.4778 0.116 0.1684 0.18 0.0965 0.399-0.7427zm14.82-17.226-0.459 0.7075 5e-3 0.0028 0.454-0.7103zm4.34 6.7557c0.533-0.0968 1.042-0.2968 1.423-0.6777 0.4-0.4004 0.573-0.9143 0.573-1.4554h-1.686c0 0.1701-0.045 0.2291-0.079 0.2633-0.054 0.0537-0.197 0.1501-0.533 0.2112l0.302 1.6586zm1.996-2.1331c0-0.9167-0.293-1.87-0.809-2.8439l-1.491 0.7888c0.434 0.8171 0.614 1.4968 0.614 2.0551h1.686zm-0.796-2.8177c-0.502-1.034-1.245-1.9866-2.206-2.8622l-1.136 1.2456c0.831 0.7574 1.432 1.5431 1.826 2.353l1.516-0.7364zm-2.21-2.8663c-2.538-2.2806-5.933-3.3767-10.088-3.3767v1.6857c3.855 0 6.809 1.0112 8.961 2.9447l1.127-1.2537zm-10.088-3.3767c-2.071 0-4.02 0.3456-5.836 1.044l0.606 1.5732c1.608-0.6185 3.349-0.9315 5.23-0.9315v-1.6857zm-5.151 1.0789c-1.647-0.8352-2.979-2.1651-3.987-4.034l-1.484 0.8004c1.152 2.1346 2.719 3.7285 4.708 4.737l0.763-1.5034zm-3.987-4.034c-1.013-1.8764-1.519-3.8983-1.519-6.0792h-1.686c0 2.4547 0.573 4.7524 1.721 6.8796l1.484-0.8004zm-1.519-6.0792c0-5.7744 2.386-10.183 7.205-13.319l-0.921-1.4127c-5.298 3.4487-7.97 8.3903-7.97 14.732h1.686zm7.203-13.318c4.183-2.7113 9.375-4.0918 15.626-4.0918v-1.6857c-6.501 0-12.031 1.4378-16.543 4.3631l0.917 1.4144zm15.626-4.0918c4.688 0 8.587 0.50837 11.72 1.5014l0.509-1.6069c-3.348-1.0614-7.432-1.5803-12.229-1.5803v1.6857zm11.726 1.5033c3.172 0.97991 5.723 2.231 7.678 3.7346l1.028-1.3361c-2.155-1.6571-4.9-2.9873-8.209-4.0091l-0.497 1.6106zm7.396 3.3439c0.574 1.6478 0.862 3.3582 0.862 5.1354h1.686c0-1.963-0.318-3.8611-0.956-5.6901l-1.592 0.5547zm0.862 5.1354c0 1.7952-0.241 3.4038-0.709 4.8342l1.602 0.5248c0.532-1.6249 0.793-3.414 0.793-5.359h-1.686zm-0.709 4.8342c-0.467 1.4258-1.128 2.524-1.961 3.3324l1.177 1.2087c1.064-1.0353 1.853-2.3867 2.386-4.0163l-1.602-0.5248zm-0.873 3.2577c-1.024-0.7532-2.77-1.4576-5.124-2.145l-0.473 1.6182c2.336 0.6822 3.831 1.321 4.598 1.8849l0.999-1.3581zm-5.124-2.145c-2.402-0.7015-4.617-1.061-6.639-1.061v1.6857c1.826 0 3.878 0.3253 6.166 0.9935l0.473-1.6182zm-6.639-1.061c-1.906 0-3.341 0.1113-4.158 0.4054l0.571 1.5861c0.5-0.1801 1.647-0.3058 3.587-0.3058v-1.6857zm-4.169 0.4093c-0.399 0.1499-0.775 0.3687-1.055 0.695-0.294 0.3421-0.44 0.7557-0.44 1.2004h1.686c0-0.0557 0.012-0.0768 0.034-0.1034 0.037-0.0424 0.135-0.1266 0.367-0.2136l-0.592-1.5784zm-1.495 1.8954c0 0.3326 0.056 0.6572 0.172 0.9676l1.579-0.5919c-0.042-0.1111-0.065-0.2343-0.065-0.3757h-1.686zm1.171 1.488c0.828-0.2129 1.936-0.3291 3.347-0.3291v-1.6857c-1.487 0-2.75 0.1209-3.766 0.3821l0.419 1.6327zm3.347-0.3291c5.005 0 9.003 1.1791 12.063 3.4669l1.01-1.3499c-3.422-2.5585-7.802-3.8027-13.073-3.8027v1.6857zm12.058 3.4635c3.566 2.7041 5.397 6.7738 5.397 12.366h1.686c0-5.9968-1.989-10.619-6.064-13.71l-1.019 1.343zm5.397 12.366c0 4.8439-1.944 8.849-5.894 12.069l1.065 1.3065c4.323-3.5234 6.515-7.9994 6.515-13.375h-1.686zm-5.891 12.066c-4.288 3.4544-10.102 5.2262-17.531 5.2262v1.6857c7.692 0 13.92-1.8367 18.589-5.5993l-1.058-1.3126zm-17.531 5.2262c-4.123 0-7.673-0.3133-10.658-0.9308l-0.342 1.6508c3.128 0.6468 6.797 0.9657 11 0.9657v-1.6857zm-10.665-0.9321c-2.969-0.5887-5.868-1.639-8.697-3.1558l-0.797 1.4855c2.968 1.5913 6.024 2.7008 9.166 3.3238l0.328-1.6535zm-8.401-2.8908c-1.897-2.7565-2.815-5.5034-2.815-8.2537h-1.686c0 3.1498 1.057 6.2238 3.112 9.2093l1.389-0.9556zm-2.815-8.2537c0-2.7618 0.931-5.0003 2.784-6.7804l-1.168-1.2155c-2.205 2.1181-3.302 4.8051-3.302 7.9959h1.686zm2.784-6.7804c1.863-1.7903 4.141-2.6886 6.885-2.6886v-1.6857c-3.157 0-5.86 1.0509-8.053 3.1588l1.168 1.2155zm6.885-2.6886c2.868 0 5.118 0.5839 6.814 1.682l0.916-1.4148c-2.046-1.3251-4.644-1.9529-7.73-1.9529v1.6857zm6.818 1.6848c1.691 1.0803 2.989 2.871 3.842 5.478l1.602-0.5237c-0.939-2.8716-2.433-5.0318-4.536-6.3747l-0.908 1.4204zm37.444 14.501-0.608 0.5827 3e-3 0.0038 0.605-0.5865zm0.831-33.899 0.562 0.6273 1e-3 -1e-4 -0.563-0.6272zm29.047-1.4619-0.507 0.6737 3e-3 0.0024 0.504-0.6761zm2.41 18.846-0.6-0.5921v1e-4l0.6 0.592zm-14.424 0.9087-0.534 0.6524 5e-3 0.0044 5e-3 0.0043 0.524-0.6611zm-3.083-5.5312 0.835-0.1165-0.101-0.7264h-0.734v0.8429zm1.106 6.5584 0.553-0.6367-8e-3 -0.0063-0.545 0.643zm16.243 0.7507 0.707-0.459-0.46-0.7094-0.709 0.4631 0.462 0.7053zm-2.371 16.041 0.537 0.65 1e-3 -6e-4 -0.538-0.6494zm-13.358 3.2661c-6.663 0-11.897-2.0422-15.795-6.0651l-1.211 1.173c4.269 4.4057 9.969 6.5778 17.006 6.5778v-1.6857zm-15.791-6.0612c-3.877-4.0518-5.852-9.5024-5.852-16.446h-1.686c0 7.2799 2.081 13.181 6.32 17.611l1.218-1.1652zm-5.852-16.446c0-6.9114 2.23-12.292 6.635-16.243l-1.126-1.2547c-4.816 4.3196-7.195 10.186-7.195 17.498h1.686zm6.636-16.243c3.936-3.5322 8.866-5.3156 14.849-5.3156v-1.6857c-6.347 0-11.693 1.904-15.976 5.7468l1.127 1.2545zm14.849-5.3156c5.338 0 9.693 1.3189 13.128 3.9002l1.013-1.3474c-3.784-2.8445-8.518-4.2385-14.141-4.2385v1.6857zm13.131 3.9026c3.388 2.5219 5.075 5.9285 5.075 10.307h1.686c0-4.8925-1.923-8.8082-5.754-11.66l-1.007 1.3521zm5.075 10.307c0 3.0225-0.934 5.4205-2.761 7.2702l1.2 1.1841c2.179-2.2064 3.247-5.05 3.247-8.4543h-1.686zm-2.761 7.2703c-1.793 1.8166-4.173 2.7518-7.225 2.7518v1.6858c3.429 0 6.266-1.0666 8.425-3.2536l-1.2-1.184zm-7.225 2.7518c-2.478 0-4.485-0.6533-6.077-1.9121l-1.046 1.3221c1.939 1.533 4.333 2.2758 7.123 2.2758v-1.6858zm-6.066-1.9035c-1.571-1.2852-2.494-2.9361-2.781-4.9953l-1.67 0.2329c0.345 2.4711 1.477 4.5077 3.384 6.0672l1.067-1.3048zm-3.616-5.7217c-0.656 0-1.301 0.1149-1.801 0.4773-0.548 0.3987-0.781 0.9928-0.781 1.6298h1.686c0-0.1147 0.019-0.1749 0.032-0.2019 0.01-0.0223 0.024-0.0416 0.056-0.0647 0.081-0.059 0.305-0.1548 0.808-0.1548v-1.6857zm-2.582 2.1071c0 2.239 1.117 4.2208 3.144 5.9373l1.089-1.2861c-1.767-1.4969-2.547-3.0446-2.547-4.6512h-1.686zm3.136 5.9309c2.358 2.0455 5.276 3.0508 8.693 3.0508v-1.6857c-3.063 0-5.573-0.8911-7.588-2.6384l-1.105 1.2733zm8.693 3.0508c3.386 0 6.259-0.7237 8.564-2.2315l-0.924-1.4106c-1.962 1.2841-4.491 1.9564-7.64 1.9564v1.6857zm7.395-2.4778c1.212 1.8665 1.84 4.1621 1.84 6.9292h1.686c0-3.0276-0.69-5.6574-2.112-7.8472l-1.414 0.918zm1.84 6.9292c0 3.0892-1.312 5.7454-4.041 8.003l1.075 1.2988c3.066-2.536 4.652-5.6482 4.652-9.3018h-1.686zm-4.04 8.0024c-3.129 2.5816-7.373 3.9161-12.822 3.9161v1.6857c5.723 0 10.383-1.4047 13.895-4.3018l-1.073-1.3zm28.397-11.558h-0.843v0.3491l0.247 0.2469 0.596-0.596zm1.779-12.327-0.818 0.2044 1e-3 0.0062 0.817-0.2106zm-2.134-0.8692-0.596-0.596-0.279 0.2792 0.035 0.3931 0.84-0.0763zm-14.425 23.784 0.588-0.604-3e-3 -0.0029-0.585 0.6069zm-0.395-33.78-0.6-0.5921 0.6 0.5921zm32.09 0.2371 0.612-0.5789-1e-3 -0.0019-0.611 0.5808zm0.198 33.188-0.607-0.5861-1e-3 0.0021 0.608 0.584zm-17.956-17.147v6.9141h1.687v-6.9141h-1.687zm0.247 7.5101c0.417 0.4161 0.993 0.5234 1.505 0.5234v-1.6857c-0.153 0-0.247-0.0173-0.297-0.0326-0.048-0.0144-0.04-0.0216-0.015 0.0028l-1.193 1.1921zm1.505 0.5234c0.635 0 1.245-0.2347 1.621-0.825l-1.423-0.905c-6e-3 0.0104-0.011 0.0136-0.011 0.0136 0 4e-4 0 7e-4 -1e-3 0.0012 0 5e-4 -3e-3 0.0017-6e-3 0.0033-0.013 0.0061-0.063 0.0262-0.18 0.0262v1.6857zm1.621-0.825c0.323-0.5074 0.408-1.2212 0.408-1.9538h-1.686c0 0.6897-0.099 0.9768-0.145 1.0488l1.423 0.905zm0.408-1.9538v-5.6498h-1.686v5.6498h1.686zm0-5.6498c0-2.51-0.101-4.2908-0.343-5.2282l-1.633 0.4212c0.18 0.6956 0.29 2.2598 0.29 4.807h1.686zm-0.341-5.222c-0.125-0.496-0.324-0.9651-0.657-1.3203-0.358-0.3813-0.825-0.5824-1.347-0.5824v1.6857c0.041 0 0.059 0.0067 0.066 0.0098 7e-3 0.0029 0.024 0.0112 0.05 0.0398 0.062 0.0663 0.165 0.2293 0.252 0.5762l1.636-0.4088zm-2.004-1.9027c-0.595 0-1.125 0.2222-1.544 0.6419l1.192 1.192c0.107-0.1072 0.21-0.1482 0.352-0.1482v-1.6857zm-1.788 1.3142c0.236 2.5963 0.352 4.6618 0.352 6.2056h1.687c0-1.6169-0.122-3.7393-0.36-6.3582l-1.679 0.1526zm-13 23.101c-4.126-3.9735-6.223-9.3743-6.223-16.303h-1.687c0 7.2946 2.224 13.167 6.74 17.517l1.17-1.214zm-6.223-16.303c0-6.9718 1.976-12.362 5.843-16.278l-1.2-1.1843c-4.248 4.3021-6.33 10.158-6.33 17.462h1.687zm5.843-16.278c3.903-3.9523 9.024-5.9522 15.445-5.9522v-1.6857c-6.805 0-12.381 2.1353-16.645 6.4536l1.2 1.1843zm15.445-5.9522c6.411 0 11.529 2.0722 15.434 6.1779l1.222-1.1616c-4.262-4.4809-9.842-6.702-16.656-6.702v1.6857zm15.432 6.1759c3.885 4.1108 5.856 9.488 5.856 16.212h1.686c0-7.0773-2.086-12.894-6.317-17.37l-1.225 1.1577zm5.856 16.212c0 6.7065-1.91 11.944-5.652 15.81l1.213 1.1721c4.109-4.2463 6.125-9.9395 6.125-16.982h-1.686zm-5.653 15.812c-3.71 3.8592-8.782 5.8255-15.319 5.8255v1.6857c6.9 0 12.446-2.0899 16.535-6.3432l-1.216-1.168zm-15.319 5.8255c-6.551 0-11.644-1.8571-15.378-5.49l-1.176 1.2081c4.117 4.0055 9.668 5.9676 16.554 5.9676v-1.6857zm28.098-1.5671 0.437-0.721-9e-3 -0.0058-0.01-0.0057-0.418 0.7325zm-3.122-25.602h0.844v-0.2692l-0.156-0.2192-0.688 0.4884zm0-16.396v-0.8429h-0.452l-0.25 0.3772 0.702 0.4657zm12.726 3.0027 0.629 0.5613 0.436-0.4878-0.365-0.5432-0.7 0.4697zm-2.134 6.3214-0.596 0.596 0.015 0.0157 0.017 0.0148 0.564-0.6265zm1.106 0.3556v0.8429h0.658l0.16-0.6371-0.818-0.2058zm5.257-8.0598 0.465 0.7024 8e-3 -0.0051-0.473-0.6973zm17.073 0.3161 0.789-0.296-0.087-0.2306-0.197-0.1477-0.505 0.6743zm-0.633 16.001 0.395 0.7449 0.242-0.1283 0.12-0.2462-0.757-0.3704zm-3.715 1.2248 0.165 0.8265 7e-3 -0.0014 6e-3 -0.0014-0.178-0.8237zm-9.129 0.158-0.155 0.8284 0.01 0.0018 9e-3 0.0016 0.136-0.8318zm-2.766-0.6322 0.255-0.8031-0.489-0.1556-0.362 0.3628 0.596 0.5959zm0.435 1.8175-0.328 0.7768 0.024 0.0101 0.025 0.0086 0.279-0.7955zm2.607 0.6321h0.843v-0.694l-0.681-0.1331-0.162 0.8271zm0 19.834 0.451 0.7121 0.392-0.2481v-0.464h-0.843zm-10.195 1.8833c-3.045 0-5.379-0.5515-7.073-1.577l-0.873 1.4418c2.048 1.2397 4.719 1.8209 7.946 1.8209v-1.6857zm-7.092-1.5885c-1.829-1.0415-2.696-2.5195-2.696-4.5223h-1.687c0 2.633 1.214 4.6581 3.548 5.9871l0.835-1.4648zm-2.696-4.5223v-20.347h-1.687v20.347h1.687zm-0.156-20.835c-1.435-2.0183-2.176-4.5257-2.176-7.5715h-1.686c0 3.3283 0.814 6.1941 2.487 8.5481l1.375-0.9766zm-2.176-7.5715c0-3.0721 0.741-5.6835 2.192-7.8706l-1.406-0.9315c-1.658 2.5012-2.472 5.4474-2.472 8.8021h1.686zm1.488-7.4935h6.047v-1.6858h-6.047v1.6858zm6.047 0c2.919 0 4.837 0.9275 5.979 2.6294l1.4-0.9393c-1.545-2.3016-4.08-3.3759-7.379-3.3759v1.6858zm6.05 1.5984c-0.73 0.8174-1.353 1.8322-1.881 3.0259l1.542 0.6813c0.474-1.0715 1.009-1.9268 1.597-2.5845l-1.258-1.1227zm-1.881 3.0259c-0.498 1.1263-0.823 2.0916-0.823 2.7902h1.686c0-0.3023 0.176-0.9701 0.679-2.1089l-1.542-0.6813zm-0.823 2.7902c0 0.604 0.152 1.2118 0.603 1.6627l1.192-1.192c-0.023-0.0232-0.109-0.1265-0.109-0.4707h-1.686zm0.635 1.6932c0.464 0.4177 1.06 0.572 1.67 0.572v-1.6857c-0.337 0-0.479-0.0829-0.542-0.1393l-1.128 1.253zm2.488-0.0651c0.883-3.5044 2.534-5.9913 4.904-7.5632l-0.931-1.4048c-2.793 1.8522-4.647 4.7385-5.608 8.5564l1.635 0.4116zm4.912-7.5683c1.967-1.335 4.427-2.0274 7.431-2.0274v-1.6857c-3.268 0-6.076 0.7562-8.378 2.3185l0.947 1.3946zm7.431-2.0274c3.79 0 6.644 0.8073 8.663 2.3204l1.011-1.3485c-2.408-1.8056-5.665-2.6576-9.674-2.6576v1.6857zm8.379 1.9421c0.745 1.9853 1.132 4.4597 1.132 7.4478h1.686c0-3.1226-0.403-5.8107-1.239-8.0397l-1.579 0.5919zm1.132 7.4478c0 2.9135-0.582 5.5374-1.733 7.8869l1.515 0.7409c1.274-2.6022 1.904-5.4833 1.904-8.6278h-1.686zm-1.369 7.5125c-0.8 0.4233-1.955 0.8113-3.499 1.1459l0.356 1.6475c1.618-0.3502 2.94-0.7787 3.932-1.3036l-0.789-1.4898zm-3.486 1.1431c-1.526 0.3052-3.065 0.4578-4.617 0.4578v1.6857c1.663 0 3.312-0.1635 4.947-0.4904l-0.33-1.6531zm-4.617 0.4578c-1.571 0-2.974-0.1031-4.211-0.305l-0.272 1.6636c1.345 0.2195 2.84 0.3271 4.483 0.3271v-1.6857zm-4.191-0.3017c-1.26-0.236-2.139-0.4391-2.667-0.6068l-0.511 1.6063c0.632 0.201 1.597 0.4194 2.867 0.6574l0.311-1.6569zm-3.518-0.3996c-0.416 0.4151-0.564 0.9614-0.564 1.5046h1.687c0-0.2469 0.063-0.3063 0.069-0.3127l-1.192-1.1919zm-0.564 1.5046c0 0.8637 0.594 1.402 1.267 1.6856l0.655-1.5537c-0.171-0.0716-0.229-0.1309-0.241-0.1452-4e-3 -5e-3 0-0.0019 3e-3 0.0079 3e-3 0.0099 3e-3 0.0137 3e-3 0.0054h-1.687zm1.316 1.7043c0.588 0.2059 1.509 0.426 2.724 0.6637l0.324-1.6542c-1.207-0.2364-2.026-0.4377-2.491-0.6006l-0.557 1.5911zm2.043-0.1634v19.834h1.686v-19.834h-1.686zm0.393 19.121c-2.717 1.7195-5.955 2.5955-9.745 2.5955v1.6857c4.059 0 7.62-0.9415 10.646-2.8569l-0.901-1.4243zm21.989-1.9349 0.585-0.6073-6e-3 -0.0053-0.579 0.6126zm0.198-33.662 0.576 0.6157 1e-3 -0.0023-0.577-0.6134zm30.746-0.5926-0.569 0.6213 4e-3 0.0041 0.565-0.6254zm1.027 22.955-0.497-0.6804-7e-3 0.0047 0.504 0.6757zm-21.34 0.9087 0.434-0.7221-0.486-0.2927-0.454 0.3406 0.506 0.6742zm2.806 3.0422 0.272-0.7975-9e-3 -0.0031-9e-3 -3e-3 -0.254 0.8036zm14.306 0.0791 0.246 0.8062 6e-3 -0.0019-0.252-0.8043zm5.256-2.4101 0.555-0.6343-0.497-0.435-0.542 0.3788 0.484 0.6905zm1.502 3.0817-0.819 0.2011 4e-3 0.017 0.815-0.2181zm0.237 7.3091 0.544 0.6435 0.208-0.1755 0.066-0.2635-0.818-0.2045zm-6.324 3.7139-0.272-0.7977-0.014 0.0052 0.286 0.7925zm-14.187-25.76-0.835-0.1172-0.077 0.5496 0.474 0.2881 0.438-0.7205zm3.043 26.576c-7.136 0-12.664-1.9789-16.685-5.8488l-1.169 1.2146c4.408 4.2425 10.395 6.3199 17.854 6.3199v-1.6857zm-16.691-5.8541c-4.12-3.8931-6.217-9.2375-6.217-16.139h-1.686c0 7.2689 2.223 13.092 6.745 17.364l1.158-1.2251zm-6.217-16.139c0-6.9208 2.158-12.319 6.412-16.294l-1.152-1.2314c-4.652 4.3479-6.946 10.223-6.946 17.526h1.686zm6.413-16.296c3.936-3.7071 8.925-5.5784 15.033-5.5784v-1.6857c-6.485 0-11.904 2.0006-16.188 6.0373l1.155 1.2268zm15.033-5.5784c6.136 0 10.961 1.6896 14.567 4.9937l1.139-1.2427c-3.982-3.6495-9.248-5.4367-15.706-5.4367v1.6857zm14.571 4.9978c3.647 3.2939 5.452 7.322 5.452 12.136h1.686c0-5.3003-2.014-9.7798-6.008-13.387l-1.13 1.2509zm5.452 12.136c0 4.2842-1.476 7.4071-4.357 9.513l0.995 1.3607c3.389-2.4771 5.048-6.1499 5.048-10.874h-1.686zm-4.364 9.5176c-2.705 2.0165-6.459 3.0726-11.351 3.0726v1.6857c5.118 0 9.269-1.1037 12.36-3.4068l-1.009-1.3515zm-11.351 3.0726c-3.625 0-6.628-0.7523-9.051-2.2103l-0.869 1.4443c2.742 1.65 6.062 2.4517 9.92 2.4517v-1.6857zm-9.991-2.1624c-0.525 0.3936-0.653 1.0173-0.653 1.5434h1.686c0-0.146 0.019-0.2198 0.028-0.2453 7e-3 -0.0178-3e-3 0.0154-0.049 0.0504l-1.012-1.3485zm-0.653 1.5434c0 0.8058 0.534 1.4052 1.141 1.8276 0.623 0.4334 1.497 0.8098 2.569 1.149l0.509-1.6072c-1.009-0.3193-1.696-0.6342-2.114-0.9252-0.206-0.1435-0.317-0.2608-0.373-0.3411-0.049-0.0724-0.046-0.1024-0.046-0.1031h-1.686zm3.692 2.9706c2.184 0.7464 4.637 1.112 7.346 1.112v-1.6857c-2.559 0-4.822-0.3455-6.801-1.0214l-0.545 1.5951zm7.346 1.112c2.73 0 5.226-0.3377 7.479-1.0243l-0.492-1.6125c-2.068 0.6304-4.394 0.9511-6.987 0.9511v1.6857zm7.485-1.0262c2.237-0.7007 4.076-1.5363 5.487-2.5239l-0.967-1.381c-1.223 0.8561-2.888 1.6273-5.024 2.2962l0.504 1.6087zm4.449-2.5801c0.432 0.3777 0.881 1.1931 1.238 2.6485l1.637-0.4022c-0.38-1.5473-0.932-2.7864-1.765-3.5149l-1.11 1.2686zm1.242 2.6655c0.381 1.4197 0.564 2.7018 0.564 3.8513h1.687c0-1.3264-0.212-2.7572-0.622-4.2875l-1.629 0.4362zm0.564 3.8513c0 1.1585-0.113 2.1677-0.33 3.0353l1.636 0.4089c0.257-1.0288 0.381-2.1794 0.381-3.4442h-1.687zm-0.057 2.5963c-1.989 1.6824-4.006 2.8617-6.051 3.5596l0.546 1.5953c2.275-0.7769 4.473-2.0737 6.594-3.868l-1.089-1.2869zm-6.065 3.5648c-2.938 1.0636-6.55 1.609-10.858 1.609v1.6857c4.44 0 8.258-0.5608 11.432-1.7097l-0.574-1.585zm-11.372-23.453c0.742 0 1.452-0.1367 1.992-0.5472 0.585-0.4436 0.827-1.0951 0.827-1.797h-1.686c0 0.2989-0.086 0.3981-0.161 0.4549-0.118 0.09-0.396 0.2036-0.972 0.2036v1.6857zm2.819-2.3442c0-0.713-0.281-1.3487-0.892-1.764-0.554-0.3757-1.278-0.5012-2.045-0.5012v1.6857c0.629 0 0.952 0.1116 1.097 0.21 0.087 0.0587 0.154 0.1342 0.154 0.3695h1.686zm-2.937-2.2652c-0.852 0-1.629 0.2325-2.226 0.79-0.587 0.5491-0.897 1.3177-1.02 2.1877l1.67 0.2343c0.089-0.6313 0.285-0.9888 0.501-1.1903 0.208-0.1931 0.531-0.336 1.075-0.336v-1.6857zm-2.849 3.8154c0.883 0.5356 1.88 0.794 2.967 0.794v-1.6857c-0.809 0-1.498-0.1894-2.092-0.5493l-0.875 1.441zm41.381 2.3611-0.342 0.7709 0.765 0.3379 0.345-0.7609-0.768-0.3479zm-5.217 0.7112h-0.843v0.7858l0.784 0.055 0.059-0.8408zm7.627 3.6349-0.613 0.5774 3e-3 0.0036 0.61-0.581zm-0.237 15.843 0.59 0.603 7e-3 -7e-3 -0.597-0.596zm-16.163 0-0.6 0.5925 7e-3 7e-3 0.593-0.5995zm-1.74-13.828-0.721-0.4353-2e-3 0.0032 0.723 0.4321zm4.269-4.2274 0.424 0.7284 0.726-0.4224-0.42-0.7272-0.73 0.4212zm-5.216-33.385-0.491-0.68586-0.352 0.25211v0.43375h0.843zm18.218 0.31607-0.636 0.5527 7e-3 0.00882 0.629-0.56152zm-1.2 30.165c-1.435-0.6347-2.767-0.9807-3.977-0.9807v1.6857c0.898 0 1.99 0.2598 3.294 0.8367l0.683-1.5417zm-3.977-0.9807c-0.641 0-1.279 0.1469-1.758 0.5896-0.492 0.4541-0.666 1.0803-0.666 1.7151h1.686c0-0.3397 0.089-0.4445 0.125-0.4776 0.048-0.0446 0.2-0.1414 0.613-0.1414v-1.6857zm-2.424 2.3047v0.158h1.686v-0.158h-1.686zm0.784 0.9988c2.79 0.1957 5.135 1.3119 7.073 3.3715l1.228-1.1549c-2.226-2.3655-4.966-3.6725-8.183-3.8982l-0.118 1.6816zm7.076 3.3751c1.928 2.0258 2.889 4.4503 2.889 7.3207h1.686c0-3.2929-1.12-6.1364-3.354-8.4829l-1.221 1.1622zm2.889 7.3207c0 2.8229-1.024 5.2581-3.112 7.3453l1.193 1.192c2.391-2.3905 3.605-5.2495 3.605-8.5373h-1.686zm-3.105 7.3384c-2.11 2.0604-4.6 3.0789-7.512 3.0789v1.6857c3.357 0 6.269-1.1942 8.691-3.5587l-1.179-1.2059zm-7.512 3.0789c-2.913 0-5.387-1.0181-7.47-3.0755l-1.185 1.199c2.397 2.3677 5.296 3.5622 8.655 3.5622v-1.6857zm-7.463-3.0685c-2.059-2.0833-3.075-4.5447-3.075-7.4278h-1.687c0 3.333 1.196 6.2184 3.563 8.6128l1.199-1.185zm-3.075-7.4278c0-1.9591 0.487-3.7451 1.461-5.3758l-1.448-0.8641c-1.134 1.8988-1.7 3.9847-1.7 6.2399h1.687zm1.459-5.3726c1.009-1.6729 2.33-2.98 3.97-3.9342l-0.848-1.4569c-1.891 1.1002-3.415 2.6115-4.566 4.5207l1.444 0.8704zm4.276-5.0838c-1.539-2.6659-2.777-5.7429-3.71-9.2387l-1.628 0.4344c0.964 3.6158 2.255 6.8339 3.878 9.6466l1.46-0.8423zm-3.71-9.2387c-0.929-3.4823-1.393-7.0966-1.393-10.845h-1.686c0 3.8898 0.483 7.6504 1.451 11.28l1.628-0.4344zm-1.393-10.845v-12.88h-1.686v12.88h1.686zm-0.353-12.194c1.005-0.71803 2.344-1.3283 4.047-1.8109l-0.46-1.6218c-1.828 0.51824-3.36 1.1986-4.568 2.061l0.981 1.3717zm4.047-1.8109c1.692-0.47943 3.406-0.71869 5.145-0.71869v-1.6857c-1.896 0-3.765 0.26118-5.605 0.78264l0.46 1.6218zm5.145-0.71869c3.829 0 6.386 0.97021 7.9 2.7125l1.273-1.1053c-1.965-2.2613-5.099-3.2929-9.173-3.2929v1.6857zm7.907 2.7213c1.554 1.7388 2.434 4.8202 2.434 9.4737h1.686c0-4.7759-0.886-8.3847-2.862-10.597l-1.258 1.123zm2.434 9.4737v2.5286h1.686v-2.5286h-1.686zm0 2.5286c0 5.9516-1.366 11.957-4.114 18.024l1.536 0.6956c2.836-6.2604 4.264-12.502 4.264-18.72h-1.686z" fill="#6366F1"/>
</g>
<defs>
<filter id="a" x=".026489" y=".2634" width="359.79" height="60.315" color-interpolation-filters="sRGB" filterUnits="userSpaceOnUse">
<feFlood flood-opacity="0" result="BackgroundImageFix"/>
<feBlend in="SourceGraphic" in2="BackgroundImageFix" result="shape"/>
<feColorMatrix in="SourceAlpha" result="hardAlpha" values="0 0 0 0 0 0 0 0 0 0 0 0 0 0 0 0 0 0 127 0"/>
<feOffset dy="2"/>
<feGaussianBlur stdDeviation="1"/>
<feComposite in2="hardAlpha" k2="-1" k3="1" operator="arithmetic"/>
<feColorMatrix values="0 0 0 0 0.349201 0 0 0 0 0.357493 0 0 0 0 0.741667 0 0 0 1 0"/>
<feBlend in2="shape" result="effect1_innerShadow_6_1452"/>
</filter>
<clipPath id="b">
<rect width="360" height="59" fill="#fff"/>
</clipPath>
</defs>
</svg>
